<?xml version="1.0" encoding="utf-8"?>
<svg version="1.1" baseProfile="full"  width="396" height="396" viewBox="0 0 396 396"
		 xmlns="http://www.w3.org/2000/svg" xmlns:xlink="http://www.w3.org/1999/xlink" xmlns:ev="http://www.w3.org/2001/xml-events">
<desc></desc>
<rect width="396" height="396" fill="#ffffff" cx="0" cy="0" />
<defs>
<rect id="p" width="12" height="12" />
</defs>
<g fill="#000000">
<use x="48" y="48" xlink:href="#p" />
<use x="48" y="60" xlink:href="#p" />
<use x="48" y="72" xlink:href="#p" />
<use x="48" y="84" xlink:href="#p" />
<use x="48" y="96" xlink:href="#p" />
<use x="48" y="108" xlink:href="#p" />
<use x="48" y="120" xlink:href="#p" />
<use x="48" y="144" xlink:href="#p" />
<use x="48" y="180" xlink:href="#p" />
<use x="48" y="204" xlink:href="#p" />
<use x="48" y="228" xlink:href="#p" />
<use x="48" y="264" xlink:href="#p" />
<use x="48" y="276" xlink:href="#p" />
<use x="48" y="288" xlink:href="#p" />
<use x="48" y="300" xlink:href="#p" />
<use x="48" y="312" xlink:href="#p" />
<use x="48" y="324" xlink:href="#p" />
<use x="48" y="336" xlink:href="#p" />
<use x="60" y="48" xlink:href="#p" />
<use x="60" y="120" xlink:href="#p" />
<use x="60" y="144" xlink:href="#p" />
<use x="60" y="180" xlink:href="#p" />
<use x="60" y="204" xlink:href="#p" />
<use x="60" y="216" xlink:href="#p" />
<use x="60" y="264" xlink:href="#p" />
<use x="60" y="336" xlink:href="#p" />
<use x="72" y="48" xlink:href="#p" />
<use x="72" y="72" xlink:href="#p" />
<use x="72" y="84" xlink:href="#p" />
<use x="72" y="96" xlink:href="#p" />
<use x="72" y="120" xlink:href="#p" />
<use x="72" y="156" xlink:href="#p" />
<use x="72" y="180" xlink:href="#p" />
<use x="72" y="192" xlink:href="#p" />
<use x="72" y="216" xlink:href="#p" />
<use x="72" y="228" xlink:href="#p" />
<use x="72" y="240" xlink:href="#p" />
<use x="72" y="264" xlink:href="#p" />
<use x="72" y="288" xlink:href="#p" />
<use x="72" y="300" xlink:href="#p" />
<use x="72" y="312" xlink:href="#p" />
<use x="72" y="336" xlink:href="#p" />
<use x="84" y="48" xlink:href="#p" />
<use x="84" y="72" xlink:href="#p" />
<use x="84" y="84" xlink:href="#p" />
<use x="84" y="96" xlink:href="#p" />
<use x="84" y="120" xlink:href="#p" />
<use x="84" y="144" xlink:href="#p" />
<use x="84" y="156" xlink:href="#p" />
<use x="84" y="168" xlink:href="#p" />
<use x="84" y="180" xlink:href="#p" />
<use x="84" y="204" xlink:href="#p" />
<use x="84" y="240" xlink:href="#p" />
<use x="84" y="264" xlink:href="#p" />
<use x="84" y="288" xlink:href="#p" />
<use x="84" y="300" xlink:href="#p" />
<use x="84" y="312" xlink:href="#p" />
<use x="84" y="336" xlink:href="#p" />
<use x="96" y="48" xlink:href="#p" />
<use x="96" y="72" xlink:href="#p" />
<use x="96" y="84" xlink:href="#p" />
<use x="96" y="96" xlink:href="#p" />
<use x="96" y="120" xlink:href="#p" />
<use x="96" y="156" xlink:href="#p" />
<use x="96" y="168" xlink:href="#p" />
<use x="96" y="180" xlink:href="#p" />
<use x="96" y="192" xlink:href="#p" />
<use x="96" y="204" xlink:href="#p" />
<use x="96" y="216" xlink:href="#p" />
<use x="96" y="264" xlink:href="#p" />
<use x="96" y="288" xlink:href="#p" />
<use x="96" y="300" xlink:href="#p" />
<use x="96" y="312" xlink:href="#p" />
<use x="96" y="336" xlink:href="#p" />
<use x="108" y="48" xlink:href="#p" />
<use x="108" y="120" xlink:href="#p" />
<use x="108" y="168" xlink:href="#p" />
<use x="108" y="192" xlink:href="#p" />
<use x="108" y="264" xlink:href="#p" />
<use x="108" y="336" xlink:href="#p" />
<use x="120" y="48" xlink:href="#p" />
<use x="120" y="60" xlink:href="#p" />
<use x="120" y="72" xlink:href="#p" />
<use x="120" y="84" xlink:href="#p" />
<use x="120" y="96" xlink:href="#p" />
<use x="120" y="108" xlink:href="#p" />
<use x="120" y="120" xlink:href="#p" />
<use x="120" y="144" xlink:href="#p" />
<use x="120" y="168" xlink:href="#p" />
<use x="120" y="192" xlink:href="#p" />
<use x="120" y="216" xlink:href="#p" />
<use x="120" y="240" xlink:href="#p" />
<use x="120" y="264" xlink:href="#p" />
<use x="120" y="276" xlink:href="#p" />
<use x="120" y="288" xlink:href="#p" />
<use x="120" y="300" xlink:href="#p" />
<use x="120" y="312" xlink:href="#p" />
<use x="120" y="324" xlink:href="#p" />
<use x="120" y="336" xlink:href="#p" />
<use x="132" y="144" xlink:href="#p" />
<use x="132" y="156" xlink:href="#p" />
<use x="132" y="180" xlink:href="#p" />
<use x="132" y="192" xlink:href="#p" />
<use x="132" y="204" xlink:href="#p" />
<use x="132" y="216" xlink:href="#p" />
<use x="132" y="228" xlink:href="#p" />
<use x="144" y="60" xlink:href="#p" />
<use x="144" y="72" xlink:href="#p" />
<use x="144" y="96" xlink:href="#p" />
<use x="144" y="108" xlink:href="#p" />
<use x="144" y="120" xlink:href="#p" />
<use x="144" y="132" xlink:href="#p" />
<use x="144" y="156" xlink:href="#p" />
<use x="144" y="180" xlink:href="#p" />
<use x="144" y="204" xlink:href="#p" />
<use x="144" y="240" xlink:href="#p" />
<use x="144" y="252" xlink:href="#p" />
<use x="144" y="264" xlink:href="#p" />
<use x="144" y="300" xlink:href="#p" />
<use x="144" y="324" xlink:href="#p" />
<use x="144" y="336" xlink:href="#p" />
<use x="156" y="48" xlink:href="#p" />
<use x="156" y="72" xlink:href="#p" />
<use x="156" y="84" xlink:href="#p" />
<use x="156" y="108" xlink:href="#p" />
<use x="156" y="132" xlink:href="#p" />
<use x="156" y="168" xlink:href="#p" />
<use x="156" y="204" xlink:href="#p" />
<use x="156" y="216" xlink:href="#p" />
<use x="156" y="240" xlink:href="#p" />
<use x="156" y="276" xlink:href="#p" />
<use x="156" y="312" xlink:href="#p" />
<use x="156" y="336" xlink:href="#p" />
<use x="168" y="72" xlink:href="#p" />
<use x="168" y="84" xlink:href="#p" />
<use x="168" y="120" xlink:href="#p" />
<use x="168" y="144" xlink:href="#p" />
<use x="168" y="156" xlink:href="#p" />
<use x="168" y="168" xlink:href="#p" />
<use x="168" y="204" xlink:href="#p" />
<use x="168" y="216" xlink:href="#p" />
<use x="168" y="240" xlink:href="#p" />
<use x="168" y="252" xlink:href="#p" />
<use x="168" y="312" xlink:href="#p" />
<use x="168" y="324" xlink:href="#p" />
<use x="180" y="60" xlink:href="#p" />
<use x="180" y="72" xlink:href="#p" />
<use x="180" y="84" xlink:href="#p" />
<use x="180" y="108" xlink:href="#p" />
<use x="180" y="156" xlink:href="#p" />
<use x="180" y="204" xlink:href="#p" />
<use x="180" y="240" xlink:href="#p" />
<use x="180" y="276" xlink:href="#p" />
<use x="180" y="288" xlink:href="#p" />
<use x="180" y="300" xlink:href="#p" />
<use x="180" y="312" xlink:href="#p" />
<use x="180" y="324" xlink:href="#p" />
<use x="180" y="336" xlink:href="#p" />
<use x="192" y="48" xlink:href="#p" />
<use x="192" y="60" xlink:href="#p" />
<use x="192" y="72" xlink:href="#p" />
<use x="192" y="120" xlink:href="#p" />
<use x="192" y="132" xlink:href="#p" />
<use x="192" y="192" xlink:href="#p" />
<use x="192" y="204" xlink:href="#p" />
<use x="192" y="216" xlink:href="#p" />
<use x="192" y="228" xlink:href="#p" />
<use x="192" y="288" xlink:href="#p" />
<use x="192" y="300" xlink:href="#p" />
<use x="192" y="312" xlink:href="#p" />
<use x="192" y="324" xlink:href="#p" />
<use x="204" y="156" xlink:href="#p" />
<use x="204" y="168" xlink:href="#p" />
<use x="204" y="180" xlink:href="#p" />
<use x="204" y="228" xlink:href="#p" />
<use x="204" y="240" xlink:href="#p" />
<use x="204" y="264" xlink:href="#p" />
<use x="204" y="276" xlink:href="#p" />
<use x="204" y="300" xlink:href="#p" />
<use x="204" y="312" xlink:href="#p" />
<use x="204" y="324" xlink:href="#p" />
<use x="216" y="48" xlink:href="#p" />
<use x="216" y="72" xlink:href="#p" />
<use x="216" y="84" xlink:href="#p" />
<use x="216" y="96" xlink:href="#p" />
<use x="216" y="108" xlink:href="#p" />
<use x="216" y="120" xlink:href="#p" />
<use x="216" y="132" xlink:href="#p" />
<use x="216" y="144" xlink:href="#p" />
<use x="216" y="156" xlink:href="#p" />
<use x="216" y="204" xlink:href="#p" />
<use x="216" y="216" xlink:href="#p" />
<use x="216" y="228" xlink:href="#p" />
<use x="216" y="240" xlink:href="#p" />
<use x="216" y="252" xlink:href="#p" />
<use x="216" y="288" xlink:href="#p" />
<use x="216" y="312" xlink:href="#p" />
<use x="216" y="336" xlink:href="#p" />
<use x="228" y="48" xlink:href="#p" />
<use x="228" y="60" xlink:href="#p" />
<use x="228" y="72" xlink:href="#p" />
<use x="228" y="108" xlink:href="#p" />
<use x="228" y="156" xlink:href="#p" />
<use x="228" y="192" xlink:href="#p" />
<use x="228" y="228" xlink:href="#p" />
<use x="228" y="240" xlink:href="#p" />
<use x="228" y="252" xlink:href="#p" />
<use x="228" y="264" xlink:href="#p" />
<use x="228" y="312" xlink:href="#p" />
<use x="228" y="324" xlink:href="#p" />
<use x="228" y="336" xlink:href="#p" />
<use x="240" y="60" xlink:href="#p" />
<use x="240" y="72" xlink:href="#p" />
<use x="240" y="96" xlink:href="#p" />
<use x="240" y="108" xlink:href="#p" />
<use x="240" y="120" xlink:href="#p" />
<use x="240" y="144" xlink:href="#p" />
<use x="240" y="156" xlink:href="#p" />
<use x="240" y="168" xlink:href="#p" />
<use x="240" y="180" xlink:href="#p" />
<use x="240" y="192" xlink:href="#p" />
<use x="240" y="204" xlink:href="#p" />
<use x="240" y="216" xlink:href="#p" />
<use x="240" y="228" xlink:href="#p" />
<use x="240" y="240" xlink:href="#p" />
<use x="240" y="252" xlink:href="#p" />
<use x="240" y="264" xlink:href="#p" />
<use x="240" y="276" xlink:href="#p" />
<use x="240" y="288" xlink:href="#p" />
<use x="240" y="300" xlink:href="#p" />
<use x="240" y="324" xlink:href="#p" />
<use x="240" y="336" xlink:href="#p" />
<use x="252" y="156" xlink:href="#p" />
<use x="252" y="168" xlink:href="#p" />
<use x="252" y="180" xlink:href="#p" />
<use x="252" y="192" xlink:href="#p" />
<use x="252" y="204" xlink:href="#p" />
<use x="252" y="240" xlink:href="#p" />
<use x="252" y="288" xlink:href="#p" />
<use x="252" y="300" xlink:href="#p" />
<use x="252" y="324" xlink:href="#p" />
<use x="264" y="48" xlink:href="#p" />
<use x="264" y="60" xlink:href="#p" />
<use x="264" y="72" xlink:href="#p" />
<use x="264" y="84" xlink:href="#p" />
<use x="264" y="96" xlink:href="#p" />
<use x="264" y="108" xlink:href="#p" />
<use x="264" y="120" xlink:href="#p" />
<use x="264" y="144" xlink:href="#p" />
<use x="264" y="156" xlink:href="#p" />
<use x="264" y="180" xlink:href="#p" />
<use x="264" y="192" xlink:href="#p" />
<use x="264" y="204" xlink:href="#p" />
<use x="264" y="228" xlink:href="#p" />
<use x="264" y="240" xlink:href="#p" />
<use x="264" y="264" xlink:href="#p" />
<use x="264" y="288" xlink:href="#p" />
<use x="264" y="324" xlink:href="#p" />
<use x="276" y="48" xlink:href="#p" />
<use x="276" y="120" xlink:href="#p" />
<use x="276" y="144" xlink:href="#p" />
<use x="276" y="204" xlink:href="#p" />
<use x="276" y="216" xlink:href="#p" />
<use x="276" y="240" xlink:href="#p" />
<use x="276" y="288" xlink:href="#p" />
<use x="276" y="300" xlink:href="#p" />
<use x="276" y="312" xlink:href="#p" />
<use x="276" y="336" xlink:href="#p" />
<use x="288" y="48" xlink:href="#p" />
<use x="288" y="72" xlink:href="#p" />
<use x="288" y="84" xlink:href="#p" />
<use x="288" y="96" xlink:href="#p" />
<use x="288" y="120" xlink:href="#p" />
<use x="288" y="144" xlink:href="#p" />
<use x="288" y="180" xlink:href="#p" />
<use x="288" y="216" xlink:href="#p" />
<use x="288" y="228" xlink:href="#p" />
<use x="288" y="240" xlink:href="#p" />
<use x="288" y="252" xlink:href="#p" />
<use x="288" y="264" xlink:href="#p" />
<use x="288" y="276" xlink:href="#p" />
<use x="288" y="288" xlink:href="#p" />
<use x="288" y="300" xlink:href="#p" />
<use x="288" y="312" xlink:href="#p" />
<use x="300" y="48" xlink:href="#p" />
<use x="300" y="72" xlink:href="#p" />
<use x="300" y="84" xlink:href="#p" />
<use x="300" y="96" xlink:href="#p" />
<use x="300" y="120" xlink:href="#p" />
<use x="300" y="192" xlink:href="#p" />
<use x="300" y="204" xlink:href="#p" />
<use x="300" y="240" xlink:href="#p" />
<use x="300" y="252" xlink:href="#p" />
<use x="300" y="264" xlink:href="#p" />
<use x="300" y="276" xlink:href="#p" />
<use x="300" y="288" xlink:href="#p" />
<use x="300" y="300" xlink:href="#p" />
<use x="300" y="324" xlink:href="#p" />
<use x="312" y="48" xlink:href="#p" />
<use x="312" y="72" xlink:href="#p" />
<use x="312" y="84" xlink:href="#p" />
<use x="312" y="96" xlink:href="#p" />
<use x="312" y="120" xlink:href="#p" />
<use x="312" y="144" xlink:href="#p" />
<use x="312" y="204" xlink:href="#p" />
<use x="312" y="216" xlink:href="#p" />
<use x="312" y="240" xlink:href="#p" />
<use x="312" y="276" xlink:href="#p" />
<use x="312" y="300" xlink:href="#p" />
<use x="312" y="312" xlink:href="#p" />
<use x="324" y="48" xlink:href="#p" />
<use x="324" y="120" xlink:href="#p" />
<use x="324" y="144" xlink:href="#p" />
<use x="324" y="168" xlink:href="#p" />
<use x="324" y="192" xlink:href="#p" />
<use x="324" y="228" xlink:href="#p" />
<use x="324" y="264" xlink:href="#p" />
<use x="324" y="336" xlink:href="#p" />
<use x="336" y="48" xlink:href="#p" />
<use x="336" y="60" xlink:href="#p" />
<use x="336" y="72" xlink:href="#p" />
<use x="336" y="84" xlink:href="#p" />
<use x="336" y="96" xlink:href="#p" />
<use x="336" y="108" xlink:href="#p" />
<use x="336" y="120" xlink:href="#p" />
<use x="336" y="156" xlink:href="#p" />
<use x="336" y="168" xlink:href="#p" />
<use x="336" y="192" xlink:href="#p" />
<use x="336" y="204" xlink:href="#p" />
<use x="336" y="216" xlink:href="#p" />
<use x="336" y="252" xlink:href="#p" />
<use x="336" y="264" xlink:href="#p" />
<use x="336" y="288" xlink:href="#p" />
<use x="336" y="312" xlink:href="#p" />
<use x="336" y="336" xlink:href="#p" />
</g>
</svg>