<?xml version="1.0" encoding="utf-8"?>
<!-- Generator: Adobe Illustrator 16.0.0, SVG Export Plug-In . SVG Version: 6.00 Build 0)  -->
<!DOCTYPE svg PUBLIC "-//W3C//DTD SVG 1.1//EN" "http://www.w3.org/Graphics/SVG/1.1/DTD/svg11.dtd">
<svg version="1.1" id="webOS_x5F_banner_x5F_whitecircle_xA0_Image_1_"
	 xmlns="http://www.w3.org/2000/svg" xmlns:xlink="http://www.w3.org/1999/xlink" x="0px" y="0px" width="504.332px" height="96px"
	 viewBox="0 0 504.332 96" enable-background="new 0 0 504.332 96" xml:space="preserve">
<polygon fill="#4E4E50" points="14.014,8.084 35.517,8.084 35.517,68.952 72.627,68.952 72.627,87.9 14.014,87.9 "/>
<g>
	<path fill="#4E4E50" d="M149.183,74.998c-9.861,11.949-26.729,14.922-38,14.502c-20.125-0.75-33.233-16.135-33.233-41.61
		c0-25.918,11.71-41.823,36.782-41.823c10.06,0,16.038,2.556,22.645,7.605c1.938,1.48,5.511,4.944,8.558,11.827l-14,7.875
		c-2.283-6.125-10.751-9.593-16.905-9.63c-13.244-0.078-18.178,11.453-18.178,26.09c0,14.871,6.081,23.068,20.208,23.291
		c8.747,0.139,15-5.125,15-5.125s0.125-7.62,0.125-11.833h-15.185L116.933,42l32.25,0.021V74.998z"/>
</g>
<g>
	<path fill="#4E4E50" d="M242.35,33.423h2.076l-17.021,53.35h-2.699l-16.606-51.273h-0.208l-16.71,51.273h-2.906l-16.607-53.351
		h2.076l15.88,51.272h0.208l16.503-51.272h3.219l16.397,51.272h0.208L242.35,33.423z"/>
	<path fill="#4E4E50" d="M248.264,60.515c0.208,14.321,5.917,25.428,21.068,25.428c11.002,0,19.1-6.123,20.862-17.645h2.076
		c-1.453,12.247-10.587,19.721-22.73,19.721c-16.502,0.207-23.354-12.041-23.354-27.92c0-17.75,11.312-27.92,23.354-27.92
		c16.606,0,23.978,13.701,23.354,28.336H248.264z M290.82,58.438c0.104-13.081-7.266-24.186-21.07-24.186
		c-11.521,0-20.759,9.237-21.483,24.186H290.82L290.82,58.438z"/>
	<path fill="#4E4E50" d="M304.578,69.835c2.695,9.062,9.49,16.107,20.283,16.107c13.804,0,20.654-12.039,20.654-25.74
		c0-12.354-6.021-25.948-20.654-25.948c-12.974,0-21.589,9.445-21.589,25.948l0.005,0.508l-2.08,0.006V12.664h2.076v35.704h-0.001
		h0.207c2.491-9.651,10.068-16.19,21.382-16.19c14.738,0,22.729,13.078,22.729,28.024c0,16.089-8.612,27.816-22.729,27.816
		c-10.896,0-19.763-7.634-22.361-18.176l0.134-0.009"/>
	<path fill="#D40055" d="M390.818,10.9c24.521,0,37.698,17.749,37.698,38.819c0,21.07-13.18,38.818-37.698,38.818
		c-24.52,0-37.696-17.748-37.696-38.818C353.121,28.649,366.298,10.9,390.818,10.9z M390.818,86.461
		c22.001,0,35.177-15.36,35.406-36.743c-0.229-21.381-13.405-36.743-35.406-36.743c-21.999,0-35.175,15.361-35.404,36.743
		C355.643,71.101,368.819,86.461,390.818,86.461z"/>
	<path fill="#D40055" d="M484.732,33.423c-0.532-15.154-10.99-20.447-24.756-20.447c-10.78,0-23.905,3.737-23.905,17.022
		c0,13.389,13.23,14.946,26.253,17.956c14.192,3.529,26.038,5.189,26.038,20.654c0,14.013-13.873,19.929-26.895,19.929
		c-17.286,0-30.095-7.681-29.771-26.363h2.134c0,17.749,11.419,24.288,27.64,24.288c11.951,0,24.76-5.189,24.76-17.956
		c0-14.946-14.94-16.192-26.681-18.995c-12.38-2.802-25.61-4.982-25.61-19.513c0-14.739,13.767-19.098,26.04-19.098
		c14.938,0,26.145,5.917,26.891,22.523H484.732z"/>
</g>
</svg>
