<?xml version="1.0" encoding="utf-8"?>
<svg version="1.1" baseProfile="full"  width="369" height="369" viewBox="0 0 369 369"
		 xmlns="http://www.w3.org/2000/svg" xmlns:xlink="http://www.w3.org/1999/xlink" xmlns:ev="http://www.w3.org/2001/xml-events">
<desc></desc>
<rect width="369" height="369" fill="#ffffff" cx="0" cy="0" />
<defs>
<rect id="p" width="9" height="9" />
</defs>
<g fill="#000000">
<use x="36" y="36" xlink:href="#p" />
<use x="36" y="45" xlink:href="#p" />
<use x="36" y="54" xlink:href="#p" />
<use x="36" y="63" xlink:href="#p" />
<use x="36" y="72" xlink:href="#p" />
<use x="36" y="81" xlink:href="#p" />
<use x="36" y="90" xlink:href="#p" />
<use x="36" y="108" xlink:href="#p" />
<use x="36" y="117" xlink:href="#p" />
<use x="36" y="126" xlink:href="#p" />
<use x="36" y="135" xlink:href="#p" />
<use x="36" y="153" xlink:href="#p" />
<use x="36" y="162" xlink:href="#p" />
<use x="36" y="171" xlink:href="#p" />
<use x="36" y="189" xlink:href="#p" />
<use x="36" y="225" xlink:href="#p" />
<use x="36" y="243" xlink:href="#p" />
<use x="36" y="270" xlink:href="#p" />
<use x="36" y="279" xlink:href="#p" />
<use x="36" y="288" xlink:href="#p" />
<use x="36" y="297" xlink:href="#p" />
<use x="36" y="306" xlink:href="#p" />
<use x="36" y="315" xlink:href="#p" />
<use x="36" y="324" xlink:href="#p" />
<use x="45" y="36" xlink:href="#p" />
<use x="45" y="90" xlink:href="#p" />
<use x="45" y="117" xlink:href="#p" />
<use x="45" y="126" xlink:href="#p" />
<use x="45" y="162" xlink:href="#p" />
<use x="45" y="171" xlink:href="#p" />
<use x="45" y="207" xlink:href="#p" />
<use x="45" y="225" xlink:href="#p" />
<use x="45" y="252" xlink:href="#p" />
<use x="45" y="270" xlink:href="#p" />
<use x="45" y="324" xlink:href="#p" />
<use x="54" y="36" xlink:href="#p" />
<use x="54" y="54" xlink:href="#p" />
<use x="54" y="63" xlink:href="#p" />
<use x="54" y="72" xlink:href="#p" />
<use x="54" y="90" xlink:href="#p" />
<use x="54" y="117" xlink:href="#p" />
<use x="54" y="126" xlink:href="#p" />
<use x="54" y="135" xlink:href="#p" />
<use x="54" y="153" xlink:href="#p" />
<use x="54" y="162" xlink:href="#p" />
<use x="54" y="189" xlink:href="#p" />
<use x="54" y="243" xlink:href="#p" />
<use x="54" y="252" xlink:href="#p" />
<use x="54" y="270" xlink:href="#p" />
<use x="54" y="288" xlink:href="#p" />
<use x="54" y="297" xlink:href="#p" />
<use x="54" y="306" xlink:href="#p" />
<use x="54" y="324" xlink:href="#p" />
<use x="63" y="36" xlink:href="#p" />
<use x="63" y="54" xlink:href="#p" />
<use x="63" y="63" xlink:href="#p" />
<use x="63" y="72" xlink:href="#p" />
<use x="63" y="90" xlink:href="#p" />
<use x="63" y="108" xlink:href="#p" />
<use x="63" y="162" xlink:href="#p" />
<use x="63" y="171" xlink:href="#p" />
<use x="63" y="207" xlink:href="#p" />
<use x="63" y="225" xlink:href="#p" />
<use x="63" y="234" xlink:href="#p" />
<use x="63" y="270" xlink:href="#p" />
<use x="63" y="288" xlink:href="#p" />
<use x="63" y="297" xlink:href="#p" />
<use x="63" y="306" xlink:href="#p" />
<use x="63" y="324" xlink:href="#p" />
<use x="72" y="36" xlink:href="#p" />
<use x="72" y="54" xlink:href="#p" />
<use x="72" y="63" xlink:href="#p" />
<use x="72" y="72" xlink:href="#p" />
<use x="72" y="90" xlink:href="#p" />
<use x="72" y="117" xlink:href="#p" />
<use x="72" y="135" xlink:href="#p" />
<use x="72" y="144" xlink:href="#p" />
<use x="72" y="153" xlink:href="#p" />
<use x="72" y="162" xlink:href="#p" />
<use x="72" y="171" xlink:href="#p" />
<use x="72" y="189" xlink:href="#p" />
<use x="72" y="198" xlink:href="#p" />
<use x="72" y="207" xlink:href="#p" />
<use x="72" y="270" xlink:href="#p" />
<use x="72" y="288" xlink:href="#p" />
<use x="72" y="297" xlink:href="#p" />
<use x="72" y="306" xlink:href="#p" />
<use x="72" y="324" xlink:href="#p" />
<use x="81" y="36" xlink:href="#p" />
<use x="81" y="90" xlink:href="#p" />
<use x="81" y="108" xlink:href="#p" />
<use x="81" y="117" xlink:href="#p" />
<use x="81" y="126" xlink:href="#p" />
<use x="81" y="144" xlink:href="#p" />
<use x="81" y="171" xlink:href="#p" />
<use x="81" y="189" xlink:href="#p" />
<use x="81" y="207" xlink:href="#p" />
<use x="81" y="216" xlink:href="#p" />
<use x="81" y="252" xlink:href="#p" />
<use x="81" y="270" xlink:href="#p" />
<use x="81" y="324" xlink:href="#p" />
<use x="90" y="36" xlink:href="#p" />
<use x="90" y="45" xlink:href="#p" />
<use x="90" y="54" xlink:href="#p" />
<use x="90" y="63" xlink:href="#p" />
<use x="90" y="72" xlink:href="#p" />
<use x="90" y="81" xlink:href="#p" />
<use x="90" y="90" xlink:href="#p" />
<use x="90" y="108" xlink:href="#p" />
<use x="90" y="126" xlink:href="#p" />
<use x="90" y="144" xlink:href="#p" />
<use x="90" y="162" xlink:href="#p" />
<use x="90" y="180" xlink:href="#p" />
<use x="90" y="198" xlink:href="#p" />
<use x="90" y="216" xlink:href="#p" />
<use x="90" y="234" xlink:href="#p" />
<use x="90" y="252" xlink:href="#p" />
<use x="90" y="270" xlink:href="#p" />
<use x="90" y="279" xlink:href="#p" />
<use x="90" y="288" xlink:href="#p" />
<use x="90" y="297" xlink:href="#p" />
<use x="90" y="306" xlink:href="#p" />
<use x="90" y="315" xlink:href="#p" />
<use x="90" y="324" xlink:href="#p" />
<use x="99" y="135" xlink:href="#p" />
<use x="99" y="153" xlink:href="#p" />
<use x="99" y="171" xlink:href="#p" />
<use x="99" y="198" xlink:href="#p" />
<use x="99" y="207" xlink:href="#p" />
<use x="99" y="216" xlink:href="#p" />
<use x="99" y="225" xlink:href="#p" />
<use x="99" y="234" xlink:href="#p" />
<use x="99" y="243" xlink:href="#p" />
<use x="99" y="252" xlink:href="#p" />
<use x="108" y="81" xlink:href="#p" />
<use x="108" y="90" xlink:href="#p" />
<use x="108" y="108" xlink:href="#p" />
<use x="108" y="126" xlink:href="#p" />
<use x="108" y="144" xlink:href="#p" />
<use x="108" y="153" xlink:href="#p" />
<use x="108" y="162" xlink:href="#p" />
<use x="108" y="171" xlink:href="#p" />
<use x="108" y="180" xlink:href="#p" />
<use x="108" y="216" xlink:href="#p" />
<use x="108" y="225" xlink:href="#p" />
<use x="108" y="234" xlink:href="#p" />
<use x="108" y="261" xlink:href="#p" />
<use x="108" y="279" xlink:href="#p" />
<use x="108" y="297" xlink:href="#p" />
<use x="108" y="324" xlink:href="#p" />
<use x="117" y="36" xlink:href="#p" />
<use x="117" y="54" xlink:href="#p" />
<use x="117" y="81" xlink:href="#p" />
<use x="117" y="99" xlink:href="#p" />
<use x="117" y="108" xlink:href="#p" />
<use x="117" y="117" xlink:href="#p" />
<use x="117" y="126" xlink:href="#p" />
<use x="117" y="135" xlink:href="#p" />
<use x="117" y="180" xlink:href="#p" />
<use x="117" y="189" xlink:href="#p" />
<use x="117" y="216" xlink:href="#p" />
<use x="117" y="225" xlink:href="#p" />
<use x="117" y="243" xlink:href="#p" />
<use x="117" y="252" xlink:href="#p" />
<use x="117" y="261" xlink:href="#p" />
<use x="117" y="270" xlink:href="#p" />
<use x="117" y="297" xlink:href="#p" />
<use x="117" y="306" xlink:href="#p" />
<use x="117" y="315" xlink:href="#p" />
<use x="126" y="36" xlink:href="#p" />
<use x="126" y="54" xlink:href="#p" />
<use x="126" y="81" xlink:href="#p" />
<use x="126" y="90" xlink:href="#p" />
<use x="126" y="108" xlink:href="#p" />
<use x="126" y="135" xlink:href="#p" />
<use x="126" y="144" xlink:href="#p" />
<use x="126" y="162" xlink:href="#p" />
<use x="126" y="207" xlink:href="#p" />
<use x="126" y="225" xlink:href="#p" />
<use x="126" y="243" xlink:href="#p" />
<use x="126" y="297" xlink:href="#p" />
<use x="126" y="306" xlink:href="#p" />
<use x="126" y="324" xlink:href="#p" />
<use x="135" y="45" xlink:href="#p" />
<use x="135" y="54" xlink:href="#p" />
<use x="135" y="72" xlink:href="#p" />
<use x="135" y="117" xlink:href="#p" />
<use x="135" y="153" xlink:href="#p" />
<use x="135" y="171" xlink:href="#p" />
<use x="135" y="189" xlink:href="#p" />
<use x="135" y="207" xlink:href="#p" />
<use x="135" y="216" xlink:href="#p" />
<use x="135" y="234" xlink:href="#p" />
<use x="135" y="252" xlink:href="#p" />
<use x="135" y="279" xlink:href="#p" />
<use x="135" y="288" xlink:href="#p" />
<use x="135" y="306" xlink:href="#p" />
<use x="135" y="324" xlink:href="#p" />
<use x="144" y="36" xlink:href="#p" />
<use x="144" y="45" xlink:href="#p" />
<use x="144" y="72" xlink:href="#p" />
<use x="144" y="90" xlink:href="#p" />
<use x="144" y="108" xlink:href="#p" />
<use x="144" y="135" xlink:href="#p" />
<use x="144" y="153" xlink:href="#p" />
<use x="144" y="162" xlink:href="#p" />
<use x="144" y="180" xlink:href="#p" />
<use x="144" y="189" xlink:href="#p" />
<use x="144" y="198" xlink:href="#p" />
<use x="144" y="207" xlink:href="#p" />
<use x="144" y="243" xlink:href="#p" />
<use x="144" y="261" xlink:href="#p" />
<use x="144" y="279" xlink:href="#p" />
<use x="144" y="288" xlink:href="#p" />
<use x="144" y="297" xlink:href="#p" />
<use x="144" y="306" xlink:href="#p" />
<use x="144" y="324" xlink:href="#p" />
<use x="153" y="63" xlink:href="#p" />
<use x="153" y="108" xlink:href="#p" />
<use x="153" y="153" xlink:href="#p" />
<use x="153" y="171" xlink:href="#p" />
<use x="153" y="189" xlink:href="#p" />
<use x="153" y="216" xlink:href="#p" />
<use x="153" y="252" xlink:href="#p" />
<use x="153" y="261" xlink:href="#p" />
<use x="153" y="270" xlink:href="#p" />
<use x="153" y="288" xlink:href="#p" />
<use x="153" y="306" xlink:href="#p" />
<use x="162" y="36" xlink:href="#p" />
<use x="162" y="54" xlink:href="#p" />
<use x="162" y="90" xlink:href="#p" />
<use x="162" y="99" xlink:href="#p" />
<use x="162" y="108" xlink:href="#p" />
<use x="162" y="135" xlink:href="#p" />
<use x="162" y="180" xlink:href="#p" />
<use x="162" y="189" xlink:href="#p" />
<use x="162" y="198" xlink:href="#p" />
<use x="162" y="207" xlink:href="#p" />
<use x="162" y="261" xlink:href="#p" />
<use x="162" y="297" xlink:href="#p" />
<use x="171" y="36" xlink:href="#p" />
<use x="171" y="45" xlink:href="#p" />
<use x="171" y="54" xlink:href="#p" />
<use x="171" y="63" xlink:href="#p" />
<use x="171" y="108" xlink:href="#p" />
<use x="171" y="153" xlink:href="#p" />
<use x="171" y="171" xlink:href="#p" />
<use x="171" y="225" xlink:href="#p" />
<use x="171" y="234" xlink:href="#p" />
<use x="171" y="252" xlink:href="#p" />
<use x="171" y="288" xlink:href="#p" />
<use x="171" y="297" xlink:href="#p" />
<use x="171" y="315" xlink:href="#p" />
<use x="180" y="45" xlink:href="#p" />
<use x="180" y="54" xlink:href="#p" />
<use x="180" y="72" xlink:href="#p" />
<use x="180" y="90" xlink:href="#p" />
<use x="180" y="117" xlink:href="#p" />
<use x="180" y="126" xlink:href="#p" />
<use x="180" y="153" xlink:href="#p" />
<use x="180" y="189" xlink:href="#p" />
<use x="180" y="207" xlink:href="#p" />
<use x="180" y="216" xlink:href="#p" />
<use x="180" y="225" xlink:href="#p" />
<use x="180" y="243" xlink:href="#p" />
<use x="180" y="279" xlink:href="#p" />
<use x="180" y="288" xlink:href="#p" />
<use x="180" y="315" xlink:href="#p" />
<use x="180" y="324" xlink:href="#p" />
<use x="189" y="45" xlink:href="#p" />
<use x="189" y="54" xlink:href="#p" />
<use x="189" y="63" xlink:href="#p" />
<use x="189" y="81" xlink:href="#p" />
<use x="189" y="99" xlink:href="#p" />
<use x="189" y="126" xlink:href="#p" />
<use x="189" y="135" xlink:href="#p" />
<use x="189" y="153" xlink:href="#p" />
<use x="189" y="162" xlink:href="#p" />
<use x="189" y="171" xlink:href="#p" />
<use x="189" y="180" xlink:href="#p" />
<use x="189" y="207" xlink:href="#p" />
<use x="189" y="216" xlink:href="#p" />
<use x="189" y="225" xlink:href="#p" />
<use x="189" y="234" xlink:href="#p" />
<use x="189" y="252" xlink:href="#p" />
<use x="189" y="297" xlink:href="#p" />
<use x="189" y="306" xlink:href="#p" />
<use x="189" y="315" xlink:href="#p" />
<use x="198" y="90" xlink:href="#p" />
<use x="198" y="162" xlink:href="#p" />
<use x="198" y="171" xlink:href="#p" />
<use x="198" y="198" xlink:href="#p" />
<use x="198" y="207" xlink:href="#p" />
<use x="198" y="216" xlink:href="#p" />
<use x="198" y="225" xlink:href="#p" />
<use x="198" y="234" xlink:href="#p" />
<use x="198" y="243" xlink:href="#p" />
<use x="198" y="306" xlink:href="#p" />
<use x="198" y="315" xlink:href="#p" />
<use x="198" y="324" xlink:href="#p" />
<use x="207" y="36" xlink:href="#p" />
<use x="207" y="54" xlink:href="#p" />
<use x="207" y="72" xlink:href="#p" />
<use x="207" y="99" xlink:href="#p" />
<use x="207" y="108" xlink:href="#p" />
<use x="207" y="126" xlink:href="#p" />
<use x="207" y="171" xlink:href="#p" />
<use x="207" y="180" xlink:href="#p" />
<use x="207" y="207" xlink:href="#p" />
<use x="207" y="216" xlink:href="#p" />
<use x="207" y="225" xlink:href="#p" />
<use x="207" y="252" xlink:href="#p" />
<use x="207" y="261" xlink:href="#p" />
<use x="207" y="279" xlink:href="#p" />
<use x="207" y="297" xlink:href="#p" />
<use x="216" y="45" xlink:href="#p" />
<use x="216" y="81" xlink:href="#p" />
<use x="216" y="90" xlink:href="#p" />
<use x="216" y="99" xlink:href="#p" />
<use x="216" y="117" xlink:href="#p" />
<use x="216" y="135" xlink:href="#p" />
<use x="216" y="162" xlink:href="#p" />
<use x="216" y="180" xlink:href="#p" />
<use x="216" y="207" xlink:href="#p" />
<use x="216" y="225" xlink:href="#p" />
<use x="216" y="234" xlink:href="#p" />
<use x="216" y="252" xlink:href="#p" />
<use x="216" y="270" xlink:href="#p" />
<use x="216" y="279" xlink:href="#p" />
<use x="216" y="297" xlink:href="#p" />
<use x="225" y="36" xlink:href="#p" />
<use x="225" y="45" xlink:href="#p" />
<use x="225" y="63" xlink:href="#p" />
<use x="225" y="99" xlink:href="#p" />
<use x="225" y="108" xlink:href="#p" />
<use x="225" y="126" xlink:href="#p" />
<use x="225" y="162" xlink:href="#p" />
<use x="225" y="171" xlink:href="#p" />
<use x="225" y="180" xlink:href="#p" />
<use x="225" y="189" xlink:href="#p" />
<use x="225" y="207" xlink:href="#p" />
<use x="225" y="225" xlink:href="#p" />
<use x="225" y="234" xlink:href="#p" />
<use x="225" y="243" xlink:href="#p" />
<use x="225" y="252" xlink:href="#p" />
<use x="225" y="270" xlink:href="#p" />
<use x="225" y="306" xlink:href="#p" />
<use x="225" y="315" xlink:href="#p" />
<use x="225" y="324" xlink:href="#p" />
<use x="234" y="36" xlink:href="#p" />
<use x="234" y="54" xlink:href="#p" />
<use x="234" y="90" xlink:href="#p" />
<use x="234" y="99" xlink:href="#p" />
<use x="234" y="108" xlink:href="#p" />
<use x="234" y="126" xlink:href="#p" />
<use x="234" y="153" xlink:href="#p" />
<use x="234" y="180" xlink:href="#p" />
<use x="234" y="198" xlink:href="#p" />
<use x="234" y="216" xlink:href="#p" />
<use x="234" y="225" xlink:href="#p" />
<use x="234" y="243" xlink:href="#p" />
<use x="234" y="261" xlink:href="#p" />
<use x="234" y="288" xlink:href="#p" />
<use x="243" y="36" xlink:href="#p" />
<use x="243" y="45" xlink:href="#p" />
<use x="243" y="54" xlink:href="#p" />
<use x="243" y="63" xlink:href="#p" />
<use x="243" y="72" xlink:href="#p" />
<use x="243" y="99" xlink:href="#p" />
<use x="243" y="144" xlink:href="#p" />
<use x="243" y="162" xlink:href="#p" />
<use x="243" y="171" xlink:href="#p" />
<use x="243" y="180" xlink:href="#p" />
<use x="243" y="189" xlink:href="#p" />
<use x="243" y="207" xlink:href="#p" />
<use x="243" y="216" xlink:href="#p" />
<use x="243" y="243" xlink:href="#p" />
<use x="243" y="297" xlink:href="#p" />
<use x="243" y="315" xlink:href="#p" />
<use x="252" y="45" xlink:href="#p" />
<use x="252" y="90" xlink:href="#p" />
<use x="252" y="99" xlink:href="#p" />
<use x="252" y="117" xlink:href="#p" />
<use x="252" y="126" xlink:href="#p" />
<use x="252" y="144" xlink:href="#p" />
<use x="252" y="153" xlink:href="#p" />
<use x="252" y="180" xlink:href="#p" />
<use x="252" y="189" xlink:href="#p" />
<use x="252" y="198" xlink:href="#p" />
<use x="252" y="207" xlink:href="#p" />
<use x="252" y="216" xlink:href="#p" />
<use x="252" y="225" xlink:href="#p" />
<use x="252" y="234" xlink:href="#p" />
<use x="252" y="243" xlink:href="#p" />
<use x="252" y="252" xlink:href="#p" />
<use x="252" y="261" xlink:href="#p" />
<use x="252" y="270" xlink:href="#p" />
<use x="252" y="279" xlink:href="#p" />
<use x="252" y="288" xlink:href="#p" />
<use x="252" y="315" xlink:href="#p" />
<use x="252" y="324" xlink:href="#p" />
<use x="261" y="108" xlink:href="#p" />
<use x="261" y="117" xlink:href="#p" />
<use x="261" y="144" xlink:href="#p" />
<use x="261" y="162" xlink:href="#p" />
<use x="261" y="189" xlink:href="#p" />
<use x="261" y="198" xlink:href="#p" />
<use x="261" y="216" xlink:href="#p" />
<use x="261" y="252" xlink:href="#p" />
<use x="261" y="288" xlink:href="#p" />
<use x="261" y="324" xlink:href="#p" />
<use x="270" y="36" xlink:href="#p" />
<use x="270" y="45" xlink:href="#p" />
<use x="270" y="54" xlink:href="#p" />
<use x="270" y="63" xlink:href="#p" />
<use x="270" y="72" xlink:href="#p" />
<use x="270" y="81" xlink:href="#p" />
<use x="270" y="90" xlink:href="#p" />
<use x="270" y="117" xlink:href="#p" />
<use x="270" y="144" xlink:href="#p" />
<use x="270" y="153" xlink:href="#p" />
<use x="270" y="162" xlink:href="#p" />
<use x="270" y="171" xlink:href="#p" />
<use x="270" y="180" xlink:href="#p" />
<use x="270" y="225" xlink:href="#p" />
<use x="270" y="234" xlink:href="#p" />
<use x="270" y="252" xlink:href="#p" />
<use x="270" y="270" xlink:href="#p" />
<use x="270" y="288" xlink:href="#p" />
<use x="270" y="297" xlink:href="#p" />
<use x="270" y="315" xlink:href="#p" />
<use x="279" y="36" xlink:href="#p" />
<use x="279" y="90" xlink:href="#p" />
<use x="279" y="108" xlink:href="#p" />
<use x="279" y="117" xlink:href="#p" />
<use x="279" y="126" xlink:href="#p" />
<use x="279" y="171" xlink:href="#p" />
<use x="279" y="189" xlink:href="#p" />
<use x="279" y="207" xlink:href="#p" />
<use x="279" y="216" xlink:href="#p" />
<use x="279" y="234" xlink:href="#p" />
<use x="279" y="252" xlink:href="#p" />
<use x="279" y="288" xlink:href="#p" />
<use x="288" y="36" xlink:href="#p" />
<use x="288" y="54" xlink:href="#p" />
<use x="288" y="63" xlink:href="#p" />
<use x="288" y="72" xlink:href="#p" />
<use x="288" y="90" xlink:href="#p" />
<use x="288" y="126" xlink:href="#p" />
<use x="288" y="135" xlink:href="#p" />
<use x="288" y="153" xlink:href="#p" />
<use x="288" y="162" xlink:href="#p" />
<use x="288" y="180" xlink:href="#p" />
<use x="288" y="243" xlink:href="#p" />
<use x="288" y="252" xlink:href="#p" />
<use x="288" y="261" xlink:href="#p" />
<use x="288" y="270" xlink:href="#p" />
<use x="288" y="279" xlink:href="#p" />
<use x="288" y="288" xlink:href="#p" />
<use x="288" y="297" xlink:href="#p" />
<use x="288" y="306" xlink:href="#p" />
<use x="288" y="324" xlink:href="#p" />
<use x="297" y="36" xlink:href="#p" />
<use x="297" y="54" xlink:href="#p" />
<use x="297" y="63" xlink:href="#p" />
<use x="297" y="72" xlink:href="#p" />
<use x="297" y="90" xlink:href="#p" />
<use x="297" y="135" xlink:href="#p" />
<use x="297" y="144" xlink:href="#p" />
<use x="297" y="162" xlink:href="#p" />
<use x="297" y="189" xlink:href="#p" />
<use x="297" y="225" xlink:href="#p" />
<use x="297" y="234" xlink:href="#p" />
<use x="297" y="243" xlink:href="#p" />
<use x="297" y="252" xlink:href="#p" />
<use x="297" y="261" xlink:href="#p" />
<use x="297" y="270" xlink:href="#p" />
<use x="297" y="288" xlink:href="#p" />
<use x="297" y="315" xlink:href="#p" />
<use x="297" y="324" xlink:href="#p" />
<use x="306" y="36" xlink:href="#p" />
<use x="306" y="54" xlink:href="#p" />
<use x="306" y="63" xlink:href="#p" />
<use x="306" y="72" xlink:href="#p" />
<use x="306" y="90" xlink:href="#p" />
<use x="306" y="126" xlink:href="#p" />
<use x="306" y="153" xlink:href="#p" />
<use x="306" y="198" xlink:href="#p" />
<use x="306" y="234" xlink:href="#p" />
<use x="306" y="270" xlink:href="#p" />
<use x="306" y="306" xlink:href="#p" />
<use x="315" y="36" xlink:href="#p" />
<use x="315" y="90" xlink:href="#p" />
<use x="315" y="117" xlink:href="#p" />
<use x="315" y="153" xlink:href="#p" />
<use x="315" y="162" xlink:href="#p" />
<use x="315" y="171" xlink:href="#p" />
<use x="315" y="180" xlink:href="#p" />
<use x="315" y="198" xlink:href="#p" />
<use x="315" y="216" xlink:href="#p" />
<use x="315" y="225" xlink:href="#p" />
<use x="315" y="252" xlink:href="#p" />
<use x="315" y="270" xlink:href="#p" />
<use x="315" y="279" xlink:href="#p" />
<use x="315" y="297" xlink:href="#p" />
<use x="315" y="324" xlink:href="#p" />
<use x="324" y="36" xlink:href="#p" />
<use x="324" y="45" xlink:href="#p" />
<use x="324" y="54" xlink:href="#p" />
<use x="324" y="63" xlink:href="#p" />
<use x="324" y="72" xlink:href="#p" />
<use x="324" y="81" xlink:href="#p" />
<use x="324" y="90" xlink:href="#p" />
<use x="324" y="117" xlink:href="#p" />
<use x="324" y="126" xlink:href="#p" />
<use x="324" y="144" xlink:href="#p" />
<use x="324" y="153" xlink:href="#p" />
<use x="324" y="198" xlink:href="#p" />
<use x="324" y="216" xlink:href="#p" />
<use x="324" y="225" xlink:href="#p" />
<use x="324" y="234" xlink:href="#p" />
<use x="324" y="243" xlink:href="#p" />
<use x="324" y="261" xlink:href="#p" />
<use x="324" y="306" xlink:href="#p" />
</g>
</svg>