<?xml version="1.0" encoding="utf-8"?>
<svg version="1.1" baseProfile="full"  width="333" height="333" viewBox="0 0 333 333"
		 xmlns="http://www.w3.org/2000/svg" xmlns:xlink="http://www.w3.org/1999/xlink" xmlns:ev="http://www.w3.org/2001/xml-events">
<desc></desc>
<rect width="333" height="333" fill="#ffffff" cx="0" cy="0" />
<defs>
<rect id="p" width="9" height="9" />
</defs>
<g fill="#000000">
<use x="36" y="36" xlink:href="#p" />
<use x="36" y="45" xlink:href="#p" />
<use x="36" y="54" xlink:href="#p" />
<use x="36" y="63" xlink:href="#p" />
<use x="36" y="72" xlink:href="#p" />
<use x="36" y="81" xlink:href="#p" />
<use x="36" y="90" xlink:href="#p" />
<use x="36" y="108" xlink:href="#p" />
<use x="36" y="144" xlink:href="#p" />
<use x="36" y="171" xlink:href="#p" />
<use x="36" y="180" xlink:href="#p" />
<use x="36" y="189" xlink:href="#p" />
<use x="36" y="207" xlink:href="#p" />
<use x="36" y="216" xlink:href="#p" />
<use x="36" y="234" xlink:href="#p" />
<use x="36" y="243" xlink:href="#p" />
<use x="36" y="252" xlink:href="#p" />
<use x="36" y="261" xlink:href="#p" />
<use x="36" y="270" xlink:href="#p" />
<use x="36" y="279" xlink:href="#p" />
<use x="36" y="288" xlink:href="#p" />
<use x="45" y="36" xlink:href="#p" />
<use x="45" y="90" xlink:href="#p" />
<use x="45" y="117" xlink:href="#p" />
<use x="45" y="171" xlink:href="#p" />
<use x="45" y="198" xlink:href="#p" />
<use x="45" y="207" xlink:href="#p" />
<use x="45" y="234" xlink:href="#p" />
<use x="45" y="288" xlink:href="#p" />
<use x="54" y="36" xlink:href="#p" />
<use x="54" y="54" xlink:href="#p" />
<use x="54" y="63" xlink:href="#p" />
<use x="54" y="72" xlink:href="#p" />
<use x="54" y="90" xlink:href="#p" />
<use x="54" y="108" xlink:href="#p" />
<use x="54" y="117" xlink:href="#p" />
<use x="54" y="144" xlink:href="#p" />
<use x="54" y="153" xlink:href="#p" />
<use x="54" y="189" xlink:href="#p" />
<use x="54" y="198" xlink:href="#p" />
<use x="54" y="216" xlink:href="#p" />
<use x="54" y="234" xlink:href="#p" />
<use x="54" y="252" xlink:href="#p" />
<use x="54" y="261" xlink:href="#p" />
<use x="54" y="270" xlink:href="#p" />
<use x="54" y="288" xlink:href="#p" />
<use x="63" y="36" xlink:href="#p" />
<use x="63" y="54" xlink:href="#p" />
<use x="63" y="63" xlink:href="#p" />
<use x="63" y="72" xlink:href="#p" />
<use x="63" y="90" xlink:href="#p" />
<use x="63" y="108" xlink:href="#p" />
<use x="63" y="144" xlink:href="#p" />
<use x="63" y="162" xlink:href="#p" />
<use x="63" y="171" xlink:href="#p" />
<use x="63" y="180" xlink:href="#p" />
<use x="63" y="189" xlink:href="#p" />
<use x="63" y="198" xlink:href="#p" />
<use x="63" y="207" xlink:href="#p" />
<use x="63" y="234" xlink:href="#p" />
<use x="63" y="252" xlink:href="#p" />
<use x="63" y="261" xlink:href="#p" />
<use x="63" y="270" xlink:href="#p" />
<use x="63" y="288" xlink:href="#p" />
<use x="72" y="36" xlink:href="#p" />
<use x="72" y="54" xlink:href="#p" />
<use x="72" y="63" xlink:href="#p" />
<use x="72" y="72" xlink:href="#p" />
<use x="72" y="90" xlink:href="#p" />
<use x="72" y="126" xlink:href="#p" />
<use x="72" y="144" xlink:href="#p" />
<use x="72" y="171" xlink:href="#p" />
<use x="72" y="198" xlink:href="#p" />
<use x="72" y="207" xlink:href="#p" />
<use x="72" y="216" xlink:href="#p" />
<use x="72" y="234" xlink:href="#p" />
<use x="72" y="252" xlink:href="#p" />
<use x="72" y="261" xlink:href="#p" />
<use x="72" y="270" xlink:href="#p" />
<use x="72" y="288" xlink:href="#p" />
<use x="81" y="36" xlink:href="#p" />
<use x="81" y="90" xlink:href="#p" />
<use x="81" y="108" xlink:href="#p" />
<use x="81" y="135" xlink:href="#p" />
<use x="81" y="144" xlink:href="#p" />
<use x="81" y="153" xlink:href="#p" />
<use x="81" y="171" xlink:href="#p" />
<use x="81" y="180" xlink:href="#p" />
<use x="81" y="189" xlink:href="#p" />
<use x="81" y="216" xlink:href="#p" />
<use x="81" y="234" xlink:href="#p" />
<use x="81" y="288" xlink:href="#p" />
<use x="90" y="36" xlink:href="#p" />
<use x="90" y="45" xlink:href="#p" />
<use x="90" y="54" xlink:href="#p" />
<use x="90" y="63" xlink:href="#p" />
<use x="90" y="72" xlink:href="#p" />
<use x="90" y="81" xlink:href="#p" />
<use x="90" y="90" xlink:href="#p" />
<use x="90" y="108" xlink:href="#p" />
<use x="90" y="126" xlink:href="#p" />
<use x="90" y="144" xlink:href="#p" />
<use x="90" y="162" xlink:href="#p" />
<use x="90" y="180" xlink:href="#p" />
<use x="90" y="198" xlink:href="#p" />
<use x="90" y="216" xlink:href="#p" />
<use x="90" y="234" xlink:href="#p" />
<use x="90" y="243" xlink:href="#p" />
<use x="90" y="252" xlink:href="#p" />
<use x="90" y="261" xlink:href="#p" />
<use x="90" y="270" xlink:href="#p" />
<use x="90" y="279" xlink:href="#p" />
<use x="90" y="288" xlink:href="#p" />
<use x="99" y="108" xlink:href="#p" />
<use x="99" y="126" xlink:href="#p" />
<use x="99" y="135" xlink:href="#p" />
<use x="99" y="162" xlink:href="#p" />
<use x="99" y="171" xlink:href="#p" />
<use x="99" y="180" xlink:href="#p" />
<use x="99" y="189" xlink:href="#p" />
<use x="99" y="216" xlink:href="#p" />
<use x="108" y="36" xlink:href="#p" />
<use x="108" y="45" xlink:href="#p" />
<use x="108" y="63" xlink:href="#p" />
<use x="108" y="90" xlink:href="#p" />
<use x="108" y="99" xlink:href="#p" />
<use x="108" y="117" xlink:href="#p" />
<use x="108" y="135" xlink:href="#p" />
<use x="108" y="144" xlink:href="#p" />
<use x="108" y="162" xlink:href="#p" />
<use x="108" y="171" xlink:href="#p" />
<use x="108" y="180" xlink:href="#p" />
<use x="108" y="189" xlink:href="#p" />
<use x="108" y="207" xlink:href="#p" />
<use x="108" y="225" xlink:href="#p" />
<use x="108" y="234" xlink:href="#p" />
<use x="108" y="243" xlink:href="#p" />
<use x="108" y="261" xlink:href="#p" />
<use x="108" y="270" xlink:href="#p" />
<use x="108" y="288" xlink:href="#p" />
<use x="117" y="99" xlink:href="#p" />
<use x="117" y="144" xlink:href="#p" />
<use x="117" y="171" xlink:href="#p" />
<use x="117" y="180" xlink:href="#p" />
<use x="117" y="189" xlink:href="#p" />
<use x="117" y="207" xlink:href="#p" />
<use x="117" y="216" xlink:href="#p" />
<use x="117" y="225" xlink:href="#p" />
<use x="117" y="234" xlink:href="#p" />
<use x="117" y="252" xlink:href="#p" />
<use x="117" y="261" xlink:href="#p" />
<use x="117" y="279" xlink:href="#p" />
<use x="126" y="54" xlink:href="#p" />
<use x="126" y="90" xlink:href="#p" />
<use x="126" y="108" xlink:href="#p" />
<use x="126" y="117" xlink:href="#p" />
<use x="126" y="135" xlink:href="#p" />
<use x="126" y="144" xlink:href="#p" />
<use x="126" y="153" xlink:href="#p" />
<use x="126" y="162" xlink:href="#p" />
<use x="126" y="171" xlink:href="#p" />
<use x="126" y="180" xlink:href="#p" />
<use x="126" y="189" xlink:href="#p" />
<use x="126" y="198" xlink:href="#p" />
<use x="126" y="207" xlink:href="#p" />
<use x="126" y="225" xlink:href="#p" />
<use x="126" y="234" xlink:href="#p" />
<use x="126" y="261" xlink:href="#p" />
<use x="135" y="45" xlink:href="#p" />
<use x="135" y="54" xlink:href="#p" />
<use x="135" y="81" xlink:href="#p" />
<use x="135" y="99" xlink:href="#p" />
<use x="135" y="108" xlink:href="#p" />
<use x="135" y="126" xlink:href="#p" />
<use x="135" y="144" xlink:href="#p" />
<use x="135" y="153" xlink:href="#p" />
<use x="135" y="198" xlink:href="#p" />
<use x="135" y="216" xlink:href="#p" />
<use x="135" y="225" xlink:href="#p" />
<use x="135" y="234" xlink:href="#p" />
<use x="135" y="243" xlink:href="#p" />
<use x="135" y="279" xlink:href="#p" />
<use x="135" y="288" xlink:href="#p" />
<use x="144" y="36" xlink:href="#p" />
<use x="144" y="45" xlink:href="#p" />
<use x="144" y="81" xlink:href="#p" />
<use x="144" y="90" xlink:href="#p" />
<use x="144" y="108" xlink:href="#p" />
<use x="144" y="126" xlink:href="#p" />
<use x="144" y="171" xlink:href="#p" />
<use x="144" y="180" xlink:href="#p" />
<use x="144" y="261" xlink:href="#p" />
<use x="144" y="270" xlink:href="#p" />
<use x="144" y="288" xlink:href="#p" />
<use x="153" y="36" xlink:href="#p" />
<use x="153" y="54" xlink:href="#p" />
<use x="153" y="63" xlink:href="#p" />
<use x="153" y="81" xlink:href="#p" />
<use x="153" y="117" xlink:href="#p" />
<use x="153" y="135" xlink:href="#p" />
<use x="153" y="144" xlink:href="#p" />
<use x="153" y="153" xlink:href="#p" />
<use x="153" y="162" xlink:href="#p" />
<use x="153" y="180" xlink:href="#p" />
<use x="153" y="189" xlink:href="#p" />
<use x="153" y="234" xlink:href="#p" />
<use x="153" y="243" xlink:href="#p" />
<use x="153" y="288" xlink:href="#p" />
<use x="162" y="54" xlink:href="#p" />
<use x="162" y="63" xlink:href="#p" />
<use x="162" y="90" xlink:href="#p" />
<use x="162" y="99" xlink:href="#p" />
<use x="162" y="108" xlink:href="#p" />
<use x="162" y="126" xlink:href="#p" />
<use x="162" y="135" xlink:href="#p" />
<use x="162" y="144" xlink:href="#p" />
<use x="162" y="153" xlink:href="#p" />
<use x="162" y="162" xlink:href="#p" />
<use x="162" y="198" xlink:href="#p" />
<use x="162" y="216" xlink:href="#p" />
<use x="162" y="225" xlink:href="#p" />
<use x="162" y="234" xlink:href="#p" />
<use x="162" y="261" xlink:href="#p" />
<use x="162" y="270" xlink:href="#p" />
<use x="162" y="288" xlink:href="#p" />
<use x="171" y="54" xlink:href="#p" />
<use x="171" y="72" xlink:href="#p" />
<use x="171" y="99" xlink:href="#p" />
<use x="171" y="153" xlink:href="#p" />
<use x="171" y="189" xlink:href="#p" />
<use x="171" y="198" xlink:href="#p" />
<use x="171" y="252" xlink:href="#p" />
<use x="171" y="261" xlink:href="#p" />
<use x="180" y="36" xlink:href="#p" />
<use x="180" y="45" xlink:href="#p" />
<use x="180" y="72" xlink:href="#p" />
<use x="180" y="90" xlink:href="#p" />
<use x="180" y="108" xlink:href="#p" />
<use x="180" y="117" xlink:href="#p" />
<use x="180" y="126" xlink:href="#p" />
<use x="180" y="162" xlink:href="#p" />
<use x="180" y="180" xlink:href="#p" />
<use x="180" y="198" xlink:href="#p" />
<use x="180" y="207" xlink:href="#p" />
<use x="180" y="225" xlink:href="#p" />
<use x="180" y="234" xlink:href="#p" />
<use x="180" y="261" xlink:href="#p" />
<use x="189" y="63" xlink:href="#p" />
<use x="189" y="99" xlink:href="#p" />
<use x="189" y="108" xlink:href="#p" />
<use x="189" y="126" xlink:href="#p" />
<use x="189" y="144" xlink:href="#p" />
<use x="189" y="162" xlink:href="#p" />
<use x="189" y="207" xlink:href="#p" />
<use x="189" y="216" xlink:href="#p" />
<use x="189" y="252" xlink:href="#p" />
<use x="189" y="261" xlink:href="#p" />
<use x="198" y="36" xlink:href="#p" />
<use x="198" y="45" xlink:href="#p" />
<use x="198" y="54" xlink:href="#p" />
<use x="198" y="81" xlink:href="#p" />
<use x="198" y="90" xlink:href="#p" />
<use x="198" y="108" xlink:href="#p" />
<use x="198" y="117" xlink:href="#p" />
<use x="198" y="126" xlink:href="#p" />
<use x="198" y="135" xlink:href="#p" />
<use x="198" y="144" xlink:href="#p" />
<use x="198" y="162" xlink:href="#p" />
<use x="198" y="180" xlink:href="#p" />
<use x="198" y="189" xlink:href="#p" />
<use x="198" y="216" xlink:href="#p" />
<use x="198" y="288" xlink:href="#p" />
<use x="207" y="36" xlink:href="#p" />
<use x="207" y="63" xlink:href="#p" />
<use x="207" y="72" xlink:href="#p" />
<use x="207" y="81" xlink:href="#p" />
<use x="207" y="99" xlink:href="#p" />
<use x="207" y="117" xlink:href="#p" />
<use x="207" y="153" xlink:href="#p" />
<use x="207" y="162" xlink:href="#p" />
<use x="207" y="171" xlink:href="#p" />
<use x="207" y="180" xlink:href="#p" />
<use x="207" y="234" xlink:href="#p" />
<use x="207" y="261" xlink:href="#p" />
<use x="207" y="288" xlink:href="#p" />
<use x="216" y="36" xlink:href="#p" />
<use x="216" y="54" xlink:href="#p" />
<use x="216" y="81" xlink:href="#p" />
<use x="216" y="90" xlink:href="#p" />
<use x="216" y="117" xlink:href="#p" />
<use x="216" y="135" xlink:href="#p" />
<use x="216" y="162" xlink:href="#p" />
<use x="216" y="171" xlink:href="#p" />
<use x="216" y="180" xlink:href="#p" />
<use x="216" y="198" xlink:href="#p" />
<use x="216" y="216" xlink:href="#p" />
<use x="216" y="225" xlink:href="#p" />
<use x="216" y="234" xlink:href="#p" />
<use x="216" y="243" xlink:href="#p" />
<use x="216" y="252" xlink:href="#p" />
<use x="216" y="270" xlink:href="#p" />
<use x="216" y="279" xlink:href="#p" />
<use x="216" y="288" xlink:href="#p" />
<use x="225" y="126" xlink:href="#p" />
<use x="225" y="135" xlink:href="#p" />
<use x="225" y="171" xlink:href="#p" />
<use x="225" y="216" xlink:href="#p" />
<use x="225" y="252" xlink:href="#p" />
<use x="225" y="261" xlink:href="#p" />
<use x="225" y="279" xlink:href="#p" />
<use x="225" y="288" xlink:href="#p" />
<use x="234" y="36" xlink:href="#p" />
<use x="234" y="45" xlink:href="#p" />
<use x="234" y="54" xlink:href="#p" />
<use x="234" y="63" xlink:href="#p" />
<use x="234" y="72" xlink:href="#p" />
<use x="234" y="81" xlink:href="#p" />
<use x="234" y="90" xlink:href="#p" />
<use x="234" y="108" xlink:href="#p" />
<use x="234" y="117" xlink:href="#p" />
<use x="234" y="135" xlink:href="#p" />
<use x="234" y="153" xlink:href="#p" />
<use x="234" y="162" xlink:href="#p" />
<use x="234" y="171" xlink:href="#p" />
<use x="234" y="198" xlink:href="#p" />
<use x="234" y="207" xlink:href="#p" />
<use x="234" y="216" xlink:href="#p" />
<use x="234" y="234" xlink:href="#p" />
<use x="234" y="252" xlink:href="#p" />
<use x="234" y="288" xlink:href="#p" />
<use x="243" y="36" xlink:href="#p" />
<use x="243" y="90" xlink:href="#p" />
<use x="243" y="117" xlink:href="#p" />
<use x="243" y="126" xlink:href="#p" />
<use x="243" y="171" xlink:href="#p" />
<use x="243" y="189" xlink:href="#p" />
<use x="243" y="198" xlink:href="#p" />
<use x="243" y="207" xlink:href="#p" />
<use x="243" y="216" xlink:href="#p" />
<use x="243" y="252" xlink:href="#p" />
<use x="243" y="261" xlink:href="#p" />
<use x="243" y="270" xlink:href="#p" />
<use x="243" y="279" xlink:href="#p" />
<use x="252" y="36" xlink:href="#p" />
<use x="252" y="54" xlink:href="#p" />
<use x="252" y="63" xlink:href="#p" />
<use x="252" y="72" xlink:href="#p" />
<use x="252" y="90" xlink:href="#p" />
<use x="252" y="117" xlink:href="#p" />
<use x="252" y="135" xlink:href="#p" />
<use x="252" y="171" xlink:href="#p" />
<use x="252" y="180" xlink:href="#p" />
<use x="252" y="198" xlink:href="#p" />
<use x="252" y="207" xlink:href="#p" />
<use x="252" y="216" xlink:href="#p" />
<use x="252" y="225" xlink:href="#p" />
<use x="252" y="234" xlink:href="#p" />
<use x="252" y="243" xlink:href="#p" />
<use x="252" y="252" xlink:href="#p" />
<use x="252" y="261" xlink:href="#p" />
<use x="261" y="36" xlink:href="#p" />
<use x="261" y="54" xlink:href="#p" />
<use x="261" y="63" xlink:href="#p" />
<use x="261" y="72" xlink:href="#p" />
<use x="261" y="90" xlink:href="#p" />
<use x="261" y="108" xlink:href="#p" />
<use x="261" y="144" xlink:href="#p" />
<use x="261" y="180" xlink:href="#p" />
<use x="261" y="189" xlink:href="#p" />
<use x="261" y="216" xlink:href="#p" />
<use x="261" y="225" xlink:href="#p" />
<use x="261" y="234" xlink:href="#p" />
<use x="261" y="243" xlink:href="#p" />
<use x="261" y="261" xlink:href="#p" />
<use x="261" y="279" xlink:href="#p" />
<use x="270" y="36" xlink:href="#p" />
<use x="270" y="54" xlink:href="#p" />
<use x="270" y="63" xlink:href="#p" />
<use x="270" y="72" xlink:href="#p" />
<use x="270" y="90" xlink:href="#p" />
<use x="270" y="126" xlink:href="#p" />
<use x="270" y="144" xlink:href="#p" />
<use x="270" y="153" xlink:href="#p" />
<use x="270" y="162" xlink:href="#p" />
<use x="270" y="189" xlink:href="#p" />
<use x="270" y="198" xlink:href="#p" />
<use x="270" y="207" xlink:href="#p" />
<use x="270" y="216" xlink:href="#p" />
<use x="270" y="225" xlink:href="#p" />
<use x="270" y="252" xlink:href="#p" />
<use x="270" y="270" xlink:href="#p" />
<use x="279" y="36" xlink:href="#p" />
<use x="279" y="90" xlink:href="#p" />
<use x="279" y="108" xlink:href="#p" />
<use x="279" y="126" xlink:href="#p" />
<use x="279" y="153" xlink:href="#p" />
<use x="279" y="162" xlink:href="#p" />
<use x="279" y="171" xlink:href="#p" />
<use x="279" y="180" xlink:href="#p" />
<use x="279" y="189" xlink:href="#p" />
<use x="279" y="225" xlink:href="#p" />
<use x="279" y="234" xlink:href="#p" />
<use x="279" y="252" xlink:href="#p" />
<use x="279" y="279" xlink:href="#p" />
<use x="279" y="288" xlink:href="#p" />
<use x="288" y="36" xlink:href="#p" />
<use x="288" y="45" xlink:href="#p" />
<use x="288" y="54" xlink:href="#p" />
<use x="288" y="63" xlink:href="#p" />
<use x="288" y="72" xlink:href="#p" />
<use x="288" y="81" xlink:href="#p" />
<use x="288" y="90" xlink:href="#p" />
<use x="288" y="108" xlink:href="#p" />
<use x="288" y="117" xlink:href="#p" />
<use x="288" y="135" xlink:href="#p" />
<use x="288" y="153" xlink:href="#p" />
<use x="288" y="162" xlink:href="#p" />
<use x="288" y="225" xlink:href="#p" />
<use x="288" y="252" xlink:href="#p" />
<use x="288" y="261" xlink:href="#p" />
<use x="288" y="270" xlink:href="#p" />
</g>
</svg>